<svg id="Layer_1" data-name="Layer 1" xmlns="http://www.w3.org/2000/svg" xmlns:xlink="http://www.w3.org/1999/xlink" viewBox="0 0 359.29 290.92" width="406" height="306" class="illustration styles_illustrationTablet__1DWOa"><defs><linearGradient id="linear-gradient" x1="66.26" y1="216.74" x2="55.84" y2="252.5" gradientUnits="userSpaceOnUse"><stop offset="0.01"></stop><stop offset="0.13" stop-opacity="0.69"></stop><stop offset="1" stop-opacity="0"></stop></linearGradient><linearGradient id="linear-gradient-2" x1="243.63" y1="294.42" x2="231.24" y2="210.51" xlink:href="#linear-gradient"></linearGradient><linearGradient id="linear-gradient-3" x1="131.54" y1="126.46" x2="91" y2="249.78" xlink:href="#linear-gradient"></linearGradient><linearGradient id="linear-gradient-4" x1="145.64" y1="135.87" x2="138.6" y2="143.33" xlink:href="#linear-gradient"></linearGradient><linearGradient id="linear-gradient-5" x1="131" y1="184.06" x2="131" y2="235.02" xlink:href="#linear-gradient"></linearGradient><linearGradient id="linear-gradient-6" x1="146.48" y1="168.74" x2="128.88" y2="148.05" xlink:href="#linear-gradient"></linearGradient><linearGradient id="linear-gradient-7" x1="125.83" y1="165.76" x2="103.21" y2="157.59" xlink:href="#linear-gradient"></linearGradient><linearGradient id="linear-gradient-8" x1="75.14" y1="201.63" x2="111.74" y2="174.32" xlink:href="#linear-gradient"></linearGradient><linearGradient id="linear-gradient-9" x1="96.24" y1="186.62" x2="121.37" y2="186.62" xlink:href="#linear-gradient"></linearGradient><linearGradient id="linear-gradient-10" x1="129.45" y1="204.39" x2="150.28" y2="161.78" xlink:href="#linear-gradient"></linearGradient><linearGradient id="linear-gradient-11" x1="118.85" y1="128.43" x2="127.09" y2="147.79" xlink:href="#linear-gradient"></linearGradient><linearGradient id="linear-gradient-12" x1="130.7" y1="187.63" x2="124.32" y2="83.83" xlink:href="#linear-gradient"></linearGradient><linearGradient id="linear-gradient-13" x1="237.37" y1="207.22" x2="185.56" y2="162.17" xlink:href="#linear-gradient"></linearGradient><linearGradient id="linear-gradient-14" x1="202.05" y1="158.67" x2="179.91" y2="166.83" xlink:href="#linear-gradient"></linearGradient><linearGradient id="linear-gradient-15" x1="213.94" y1="195.85" x2="212.25" y2="171.07" xlink:href="#linear-gradient"></linearGradient><linearGradient id="linear-gradient-16" x1="98.32" y1="217.83" x2="71.47" y2="249.92" xlink:href="#linear-gradient"></linearGradient><linearGradient id="linear-gradient-17" x1="77.32" y1="231.65" x2="88.34" y2="231.65" xlink:href="#linear-gradient"></linearGradient><linearGradient id="linear-gradient-18" x1="76.25" y1="225.34" x2="87.12" y2="225.34" xlink:href="#linear-gradient"></linearGradient></defs><title>11</title><path d="M158.59,29.35c-10.7,15-17.27,33.2-30.66,45.91-13.09,12.43-31,18-47.76,24.69-25.64,10.17-51.28,24.8-64.7,48.9C-3.3,182.52,7.94,227.43,35,254.89s66.56,39.57,105.05,41.79,76.86-4.36,115.12-9.15c34.89-4.37,73.87-9.25,96-36.61a66.36,66.36,0,0,0,10.92-62.08c-5.42-15.77-16.59-28.77-25.45-42.9-12-19.19-19.86-40.64-29.09-61.32s-20.26-41.17-37.14-56.27C241.61,2.62,183.12-5.12,158.59,29.35Z" transform="translate(-6.17 -6.21)" fill="#ffc823" opacity="0.18" style="isolation: isolate;"></path><path d="M29.06,241.23c2.22,1.76,5.17,2.2,8,2.52,15.7,1.76,31.56,1.37,47.35,1a23.2,23.2,0,0,0,8.09-1.17c-.49-1.22-1.89-1.76-3.14-2.17q-14.06-4.62-28.18-9C53.38,229.94,45.6,228,37.74,231c-2.41.93-8.09,1.46-9.78,2.74C25.51,235.6,26.83,239.47,29.06,241.23Z" transform="translate(-6.17 -6.21)" fill="url(#linear-gradient)"></path><polygon points="108.94 228.43 107.87 230.87 78.99 239.13 32.88 232.23 31.66 230.5 108.94 228.43" fill="#ffc823"></polygon><path d="M221.87,225.36c2.63-1.68,5.5-3.11,7.54-5.47.93-1.08,1.94-2.47,3.36-2.35a4.41,4.41,0,0,1,1.44.5c5.79,2.65,12.52,1,18.78-.22a2.81,2.81,0,0,1,1.41,0,3,3,0,0,1,1.48,1.54c4.29,7.41,9.84,14.6,17.69,18a65.2,65.2,0,0,1,6.08,2.58c.47.27,1,.69.92,1.22a1.34,1.34,0,0,1-.69.86c-2.41,1.6-5.48,1.66-8.37,1.68l-33.31.13a46.77,46.77,0,0,0-7.39.42c-2.71.45-5.32,1.37-8,1.85-4.07.72-8.25.41-12.38.64-3.25.18-6.49.7-9.75.64a15.66,15.66,0,0,1-9.21-2.72l19.07-6.85a1.45,1.45,0,0,0,.83-.54c.39-.69-.48-1.39-1.15-1.82-2.38-1.51.47-2,1.68-2.07,1.52-.14,2.69-.11,3.76-1.25.82-.86,1.21-2.24,2-3.19C218.83,227.41,220.55,226.68,221.87,225.36Z" transform="translate(-6.17 -6.21)" fill="#fff"></path><path d="M221.87,225.36c2.63-1.68,5.5-3.11,7.54-5.47.93-1.08,1.94-2.47,3.36-2.35a4.41,4.41,0,0,1,1.44.5c5.79,2.65,12.52,1,18.78-.22a2.81,2.81,0,0,1,1.41,0,3,3,0,0,1,1.48,1.54c4.29,7.41,9.84,14.6,17.69,18a65.2,65.2,0,0,1,6.08,2.58c.47.27,1,.69.92,1.22a1.34,1.34,0,0,1-.69.86c-2.41,1.6-5.48,1.66-8.37,1.68l-33.31.13a46.77,46.77,0,0,0-7.39.42c-2.71.45-5.32,1.37-8,1.85-4.07.72-8.25.41-12.38.64-3.25.18-6.49.7-9.75.64a15.66,15.66,0,0,1-9.21-2.72l19.07-6.85a1.45,1.45,0,0,0,.83-.54c.39-.69-.48-1.39-1.15-1.82-2.38-1.51.47-2,1.68-2.07,1.52-.14,2.69-.11,3.76-1.25.82-.86,1.21-2.24,2-3.19C218.83,227.41,220.55,226.68,221.87,225.36Z" transform="translate(-6.17 -6.21)" fill="url(#linear-gradient-2)"></path><path d="M165.13,217.32a7.56,7.56,0,0,1,3,1.79c1.8,2,1,5.44-1,7.26s-4.81,2.44-7.49,2.85c-12.2,1.89-24.63,1.11-37,.9-3.43-.05-6.93-.06-10.19,1a20.86,20.86,0,0,1-4,1.25c-3.81.49-7.11-2.35-10.3-4.48-8.67-5.78-19.56-7.07-30-7.1s-20.93,1-31.21-.71c-1.87-.32-4.15-1.19-4.25-3.09a3.9,3.9,0,0,1,.9-2.34c3.09-4.36,8.26-6.81,13.46-8s10.58-1.47,15.84-2.4c4.63-.81,9.22-2.18,13.92-2.14,5.94,0,11.59,2.34,17.21,4.25a148.15,148.15,0,0,0,37.85,7.59C143.68,214.72,153.78,212.88,165.13,217.32Z" transform="translate(-6.17 -6.21)" fill="url(#linear-gradient-3)"></path><path d="M144.68,139.78a2.24,2.24,0,0,0,.32-1.15,1.25,1.25,0,0,0-.21-.76,1.73,1.73,0,0,0-.77-.52,3.47,3.47,0,0,0-1.69-.42c-.44,0-1,.35-.65.82a6.81,6.81,0,0,0,1.47.94A18.41,18.41,0,0,1,144.68,139.78Z" transform="translate(-6.17 -6.21)" fill="url(#linear-gradient-4)"></path><path d="M86.49,199a4.19,4.19,0,0,0-1.53.47l-18.68,8.52a2.73,2.73,0,0,0-1.55,1.24,2.21,2.21,0,0,0,1,2.4,8.71,8.71,0,0,0,4.6,1.47c8.29.77,16.72-2.18,24.88-.55,3.74.74,4.43-6,2.13-8.06-1.32-1.17-3.26-1.67-4.83-2.41C90.78,201.21,88.47,198.85,86.49,199Z" transform="translate(-6.17 -6.21)" fill="#261a17"></path><path d="M146.25,202.29a14.73,14.73,0,0,1,3.12,1.44c1.87,1.3,2.82,3.53,3.68,5.64a9.05,9.05,0,0,1,.79,2.71,6.08,6.08,0,0,1-2.06,4.71c-3.13,3-7.9,3.24-12.23,3.31l-15.31.26a62.2,62.2,0,0,1-13.78-.79,2,2,0,0,1-1-.41,2.27,2.27,0,0,1-.55-1.44,62.9,62.9,0,0,1-.7-10.87,2.77,2.77,0,0,1,.45-1.63,2.83,2.83,0,0,1,1.75-.78L119,202.8a27.47,27.47,0,0,0,5.29-1.39c3.31-1.36,7-5.27,10.84-4.73S142.65,200.89,146.25,202.29Z" transform="translate(-6.17 -6.21)" fill="#ffc823"></path><path d="M146.25,202.29a14.73,14.73,0,0,1,3.12,1.44c1.87,1.3,2.82,3.53,3.68,5.64a9.05,9.05,0,0,1,.79,2.71,6.08,6.08,0,0,1-2.06,4.71c-3.13,3-7.9,3.24-12.23,3.31l-15.31.26a62.2,62.2,0,0,1-13.78-.79,2,2,0,0,1-1-.41,2.27,2.27,0,0,1-.55-1.44,62.9,62.9,0,0,1-.7-10.87,2.77,2.77,0,0,1,.45-1.63,2.83,2.83,0,0,1,1.75-.78L119,202.8a27.47,27.47,0,0,0,5.29-1.39c3.31-1.36,7-5.27,10.84-4.73S142.65,200.89,146.25,202.29Z" transform="translate(-6.17 -6.21)" fill="url(#linear-gradient-5)"></path><path d="M132.62,132.15s-10-1.12-14.64,2.26-23.09,30.22-23.84,35.47,7.7,7.28,18.11,9.25a95.18,95.18,0,0,0,20.37,1.41l12.86-24.25s3.8-9.26,2.25-12.5a14.81,14.81,0,0,0-4.45-5.21Z" transform="translate(-6.17 -6.21)" fill="#fff"></path><path d="M142,140.8a5,5,0,0,1-.65,2.53,176.24,176.24,0,0,1-8.61,17.16A4.79,4.79,0,0,1,131.5,162a1.68,1.68,0,0,1-1.84.15,2.51,2.51,0,0,1-.82-1.27L126,153.42a40.79,40.79,0,0,0-4.5,12,1.69,1.69,0,0,0,.15,1.4,1.62,1.62,0,0,0,1,.44,22.91,22.91,0,0,0,10.88-.62,5.14,5.14,0,0,0,2.19-1.12,5.93,5.93,0,0,0,1.22-2.11l7.75-19.18c.58-1.42,1.13-3.1.34-4.41-.42-.68-2.17-2-3-1.69C140.78,138.47,141.88,139.71,142,140.8Z" transform="translate(-6.17 -6.21)" fill="url(#linear-gradient-6)"></path><path d="M96.21,168.12a30.22,30.22,0,0,0,17-5.56A9.85,9.85,0,0,0,116,159.9c1.82-2.88.89-6.64-.1-9.9s-3.08.8-4,2c-1.53,2-2.5,4.39-4,6.43a32.43,32.43,0,0,1-5.32,5.6C101.22,165.14,98.05,168.1,96.21,168.12Z" transform="translate(-6.17 -6.21)" fill="url(#linear-gradient-7)"></path><path d="M148.16,192.91a8.22,8.22,0,0,1-3.26,5.1,24.16,24.16,0,0,1-5.44,2.93c-9.38,4.06-19,8.19-29.23,8.59a3,3,0,0,1-1.77-.31,3.3,3.3,0,0,1-1.11-1.82c-.85-2.4-2.23-5.49-4.22-7.28a5.43,5.43,0,0,0-2.73-1.4c-3.91-.65-8.33-1.62-10.32-5.05A10.85,10.85,0,0,1,89,187.82a36.73,36.73,0,0,1,1.82-9.67,24.09,24.09,0,0,0,1.13-4.34c.22-1.67.43-3.35.65-5a.35.35,0,0,1,.13-.28.36.36,0,0,1,.23,0c6.59.19,13-1.43,18.15-5.71a48.17,48.17,0,0,0,5.44-5.53,44.25,44.25,0,0,0,6.93-9.39,16.6,16.6,0,0,0,1.84-8.17c-.12-2-.52-5.78-2.12-7.14a3.93,3.93,0,0,0-4-.61c.33-1.14,1.58-1.69,2.7-2.1a6.37,6.37,0,0,1,2.3-.53A5.08,5.08,0,0,1,128,132c4.14,6.41,1.86,15.48-.72,22.05-1.08,2.72-2.47,5.48-2.24,8.4,0,.35,2.32,1.22,2.66,1.36a9.81,9.81,0,0,0,3.19.82,4.2,4.2,0,0,0,4.4-2.77l2.11-4.74c.6-1.34,1.19-2.68,1.77-4,1.72-4,3.25-8.14,4.78-12.24a4.38,4.38,0,0,0,.4-2.55c-.2-.84-1.18-1.55-1.95-1.16,1.14-.58,3.43,1.44,4,2.22,1.24,1.64.74,3.29.06,5.09-4.2,11.31-11.7,21.71-12.53,33.74a3.31,3.31,0,0,0,.28,2,3.39,3.39,0,0,0,1.8,1.23c2.83,1.13,5.8,2,8.26,3.84S148.6,189.9,148.16,192.91Z" transform="translate(-6.17 -6.21)" fill="#ffc823"></path><path d="M106.47,196.52l1.86-1.17a9,9,0,0,0-5,4.33l-.22.44a5.43,5.43,0,0,0-2.73-1.4c-3.91-.65-8.33-1.62-10.32-5.05A10.85,10.85,0,0,1,89,187.82a36.73,36.73,0,0,1,1.82-9.67,24.09,24.09,0,0,0,1.13-4.34c.22-1.67.43-3.35.65-5a.37.37,0,0,1,.11-.27h0l3.18.51a3.72,3.72,0,0,1,.72,3c-.41,3.78-3,7.18-2.81,11a2.61,2.61,0,0,0,.38,1.4,3,3,0,0,0,1.64.93c8.93,2.7,18.58,2.43,27.66.3Q115.18,191.39,106.47,196.52Z" transform="translate(-6.17 -6.21)" fill="url(#linear-gradient-8)"></path><path d="M121.24,206.18a1.67,1.67,0,0,1-.13,1.59,1.61,1.61,0,0,1-1,.38,21.58,21.58,0,0,1-4.4.09A1.17,1.17,0,0,1,115,208a1.14,1.14,0,0,1-.29-.68Q113,197.94,112,188.41q-.51-4.82-.81-9.64c-.16-2.6.52-5.63-2.79-6-4.15-.4-8.61-.25-12.12-2.5,4.45-.22,9.23-.57,12.67-3.39.94-.77,1.82-1.74,3-1.94a3.58,3.58,0,0,1,2.62.72c3.32,2.38,3.11,6.44,3.46,10.11.62,6.46.73,13,1.39,19.42A73.63,73.63,0,0,0,121.24,206.18Z" transform="translate(-6.17 -6.21)" fill="url(#linear-gradient-9)"></path><circle cx="236.34" cy="205.54" r="11.22" fill="#ffc823"></circle><rect x="233.39" y="65.24" width="5.06" height="129.08" fill="#ffc823"></rect><polygon points="225.58 67.45 247.51 67.45 236.2 46.24 225.58 67.45" fill="#ffc823"></polygon><path d="M253.18,112.37H242.72v-5.29h10.46a10.18,10.18,0,0,0,10.17-10.17V88.73h5.29v8.18A15.48,15.48,0,0,1,253.18,112.37Z" transform="translate(-6.17 -6.21)" fill="#ffc823"></path><rect x="251.39" y="72.32" width="16.87" height="16.87" fill="#ffc823"></rect><path d="M244.8,149.68h-5.29v-9.34a7.82,7.82,0,0,0-7.81-7.82,15.49,15.49,0,0,1-15.47-15.46V95.4h5.29v21.66a10.19,10.19,0,0,0,10.18,10.17,13.12,13.12,0,0,1,13.1,13.11Z" transform="translate(-6.17 -6.21)" fill="#ffc823"></path><rect x="210.44" y="90.66" width="16.87" height="16.87" rx="8.44" transform="translate(431.59 191.98) rotate(180)" fill="#ffc823"></rect><path d="M159.46,122.07c-1.66,1.79-2.16,4-3.11,6.21a16.54,16.54,0,0,1-2.88,4.92,19,19,0,0,1-3.11,2.53,9,9,0,0,1-2.75,1.45,5.22,5.22,0,0,1-3.49-.44,2.4,2.4,0,0,0-.84-.29.74.74,0,0,0-.36,0,1.45,1.45,0,0,0-.66.68,18.78,18.78,0,0,1-2.22,3.38l0,.05a4.2,4.2,0,0,1-3.67,1.44,5.27,5.27,0,0,1-3.2-2.74,20.61,20.61,0,0,1-1.37-2.69,2.16,2.16,0,0,1-.24-1,2.41,2.41,0,0,1,.45-1.07c2-3.13,3.93-6.26,5.58-9.56,1.76-3.51,3.36-7.44,6.75-9.42,2.53-1.49,5.63-1.6,8.57-1.52,2.46.07,5.22.38,6.77,2.29A4.53,4.53,0,0,1,159.46,122.07Z" transform="translate(-6.17 -6.21)" fill="#f9bba2"></path><path d="M165.92,119.44a8.51,8.51,0,0,1-4.46,5.84,6.08,6.08,0,0,1-7-1.29,24.49,24.49,0,0,0-1.53-2c-1.25-1.21-3.14-1.4-4.88-1.51,1.19-2.35,2.59-5.07,3.78-7.43-1.37,1.62-3.47,2.36-5.2,3.59a11,11,0,0,0-4.51,7.55,14.51,14.51,0,0,0-.83-1.94,1,1,0,0,0-.34-.45.9.9,0,0,0-.77,0,3.07,3.07,0,0,0-1.7,3.63c.14.45.32,1.06-.1,1.26a.94.94,0,0,1-.5,0,3.53,3.53,0,0,0-2.83,1.16c-.05-.12-.1-.24-.14-.36-.14-.31-.25-.63-.36-.95a16.47,16.47,0,0,1-.57-2,0,0,0,0,1,0,0,20,20,0,0,1-.18-8.18,4,4,0,0,0,.11-1.32c-.19-1.14-1.45-1.92-1.48-3.07-2.33-.27-4.47,1.46-5.64,3.49s-1.67,4.37-2.58,6.53a18.24,18.24,0,0,1-4.84,6.68c-1.42,1.23-3.66.78-5.62-.24a12.1,12.1,0,0,1-2.71-1.87,10.5,10.5,0,0,0,4.51-4,12.35,12.35,0,0,0,1.06-3.55c1-5.24,1.67-10.9,5.23-14.87a12.91,12.91,0,0,1,8.15-4.17,6.49,6.49,0,0,1,3.82.59,5.12,5.12,0,0,1,2.4,3.71,8.27,8.27,0,0,1-.69,4.46c1.3.55,2.56-.74,3.55-1.74a13.94,13.94,0,0,1,15.6-2.56,13.35,13.35,0,0,0,1.59.72,10.94,10.94,0,0,0,1.7.36,8.05,8.05,0,0,1,7.41,6.36A14.37,14.37,0,0,1,165.92,119.44Z" transform="translate(-6.17 -6.21)" fill="#fc682d"></path><path d="M143.28,136.45a.74.74,0,0,0-.36,0,1.45,1.45,0,0,0-.66.68,18.78,18.78,0,0,1-2.22,3.38,9.4,9.4,0,0,1-.13-8.12c.19-.41.56-.32.77,0a3.9,3.9,0,0,1,.22.91,6.68,6.68,0,0,0,1.48,2.3,3,3,0,0,0,.6.59Z" transform="translate(-6.17 -6.21)" fill="#e2a791"></path><path d="M114,142.09s-4.45,24-3,26.1l16.87.76s-.24-25.27-1.17-28.41S120.42,127.62,114,142.09Z" transform="translate(-6.17 -6.21)" fill="#fff"></path><path d="M147.73,143.79s5.77,11.56,7.88,16.34,5,10.83,5,10.83-5.81,8-10.74,8.17l-8.68-14.7Z" transform="translate(-6.17 -6.21)" fill="#fff"></path><path d="M146.46,158.12a30.09,30.09,0,0,1,.37-10.53c-1.76,9.65-9.89,17.17-11.81,26.79,2.32-3.18,4.07-6.61,6.14-9.95,3,5,4.83,9,8,12.83,1.33,1.62,3.51.82,4.42-.94s-.43-3.59-1.42-5.15C149.58,167.15,147.24,162.88,146.46,158.12Z" transform="translate(-6.17 -6.21)" fill="url(#linear-gradient-10)"></path><path d="M112.66,168.27s3,33.1,4.1,36.34a5.14,5.14,0,0,0,4.35,3.7,4.83,4.83,0,0,0,4.77-3.31,9.25,9.25,0,0,0,.19-3.32c-.69-10.06-2.07-20.16-1-30.19.14-1.31.25-2.83-.71-3.74a3.83,3.83,0,0,0-2.11-.81C119.32,166.52,115.61,168.27,112.66,168.27Z" transform="translate(-6.17 -6.21)" fill="#f9bba2"></path><path d="M127.8,201.22a.52.52,0,0,1,.39.08.56.56,0,0,1,.12.38,95.23,95.23,0,0,0,2,13.43,1.58,1.58,0,0,0,.36.87,1.51,1.51,0,0,0,.68.34c2.86.8,6,0,8.88.6a15.27,15.27,0,0,1,3.44,1.2c2.14,1,4.35,2.38,5.07,4.63.07.23.11.52-.08.67a.63.63,0,0,1-.36.1,6.7,6.7,0,0,1-1.95,0,22.22,22.22,0,0,0-2.62-.74c-1.21-.08-2.3.63-3.41,1.11a18.68,18.68,0,0,1-4.74,1.1c-3.44.48-7.06.94-10.3-.3a5.41,5.41,0,0,1-1.93-1.16,7.37,7.37,0,0,1-1.17-1.65,91.23,91.23,0,0,1-4.63-8.74,23.44,23.44,0,0,0-1.12-2.38,30,30,0,0,1-1.61-2.73,8.05,8.05,0,0,1-.57-2.27,5.63,5.63,0,0,1-.13-2.19c.45-.88,3.26-1,4.14-1.19A69.43,69.43,0,0,1,127.8,201.22Z" transform="translate(-6.17 -6.21)" fill="#fc682d"></path><path d="M165.89,181.85a71.6,71.6,0,0,0,9.42-6.35l6.75-5.09a4.11,4.11,0,0,0,1.49-1.61c.52-1.28-.31-2.68-1.11-3.81-.38-.55-.87-1.15-1.53-1.15a2.1,2.1,0,0,0-1.07.38,52.29,52.29,0,0,1-10.4,4.91c-3.49,1.12-7.18,1.66-10.58,3.05-4.09,1.67-9.13,5.46-4.67,9.64C157.53,185,162.23,183.79,165.89,181.85Z" transform="translate(-6.17 -6.21)" fill="#f9bba2"></path><path d="M170,167.29a1.15,1.15,0,0,0-.48.47,1.13,1.13,0,0,0,.08.82,26.75,26.75,0,0,0,5.29,8.73,1.41,1.41,0,0,0,.64.47,1.34,1.34,0,0,0,1-.26,13.32,13.32,0,0,0,2.88-2.29c1.35-1.41,2.4-3.13,3.94-4.32,2.43-1.88,5.66-2.18,8.69-2.65,1.45-.22,3.22-.83,3.38-2.29.1-.95-.58-1.79-.94-2.69-.45-1.1-.44-2.4-1.12-3.38-1-1.44-3-1.61-4.79-1.46-3.07.25-5.86.53-8.46,2.22C176.77,162.86,173.41,165.08,170,167.29Z" transform="translate(-6.17 -6.21)" fill="#fc682d"></path><path d="M113.18,207.62l-6.87,2.71c-.49.19-1,.44-1.2.94a1.56,1.56,0,0,0,.38,1.35c2,2.64,6,2.65,8.55,4.8a2.44,2.44,0,0,1,1,2.25c-.25,1.1-1.59,1.52-2.72,1.67a26.45,26.45,0,0,1-14.13-2.05,53,53,0,0,1-8.42-5.07c-1.44-1-3-2.25-3.1-4-.09-2.29,2.39-3.71,4.47-4.69,5-2.36,9.27-5.49,13.88-8.46,2.83-1.82,2.81,1.08,3.92,3.45A43.38,43.38,0,0,0,113.18,207.62Z" transform="translate(-6.17 -6.21)" fill="#3d2d28"></path><path d="M118.93,132.24a3.92,3.92,0,0,1,.43-.84,2,2,0,0,1,3.69,1.28,33.86,33.86,0,0,0-3.33.86c-.35.12-1,.55-1.21.13S118.82,132.53,118.93,132.24Z" transform="translate(-6.17 -6.21)" fill="url(#linear-gradient-11)"></path><path d="M137.28,126.5l-2.34,1.1-.24.11a6.26,6.26,0,0,0-.12-1.06,10.55,10.55,0,0,0-.57-2,0,0,0,0,1,0,0,20,20,0,0,1-.18-8.18,4,4,0,0,0,.11-1.32c-.19-1.14-1.45-1.92-1.48-3.07-2.33-.27-4.47,1.46-5.64,3.49s-1.67,4.37-2.58,6.53a18.24,18.24,0,0,1-4.84,6.68c-1.42,1.23-3.66.78-5.62-.24a8.75,8.75,0,0,0,3.62-1.59c2.66-2.1,3.29-5.78,4-9.08.4-1.78.89-3.55,1.46-5.29a6.3,6.3,0,0,1,1.26-2.47,5.26,5.26,0,0,1,2.1-1.21c2.1-.74,4.68-.79,6.29.75a1.58,1.58,0,0,1,1.05-.42,5.55,5.55,0,0,0,1.88,3.45c.68.52,3.29,1,3.95.27a14.18,14.18,0,0,0-3.19,6.47A10.72,10.72,0,0,0,137.28,126.5Z" transform="translate(-6.17 -6.21)" fill="url(#linear-gradient-12)"></path><path d="M209.74,166.19a45.24,45.24,0,0,1-8.33,19,4.33,4.33,0,0,1-1.59,1.48,4.27,4.27,0,0,1-1.7.26,25.38,25.38,0,0,1-7.2-1,8,8,0,0,1-3.76-2,8.78,8.78,0,0,1-1.78-3.68,70.63,70.63,0,0,1-1.66-7.28c-.8-4.7-1-9.84.79-13.19,1.1-2,3.53-3.5,5.7-2.75a.77.77,0,0,1,.42.28.85.85,0,0,1-.11.86c-.05.1-.11.2-.17.3-1,1.79-2.35,3.4-2.91,5.37s.05,4.41,1.81,5.19a2.23,2.23,0,0,0,.43.16c2.33.62,4.29-1.72,5.66-3.71s3-4.17,4.71-6.14c.91-1.06,2.16-2.2,3.51-1.86a3.88,3.88,0,0,1,1.85,1.44l3.38,4a4.2,4.2,0,0,1,1,1.66A4.06,4.06,0,0,1,209.74,166.19Z" transform="translate(-6.17 -6.21)" fill="#fff"></path><path d="M209.74,166.19a45.24,45.24,0,0,1-8.33,19,4.33,4.33,0,0,1-1.59,1.48,4.27,4.27,0,0,1-1.7.26,25.38,25.38,0,0,1-7.2-1,8,8,0,0,1-3.76-2,8.78,8.78,0,0,1-1.78-3.68,70.63,70.63,0,0,1-1.66-7.28c2.66,5.95,7.28,10.19,11.74,10S205.41,159,205.41,159l3.38,4a4.2,4.2,0,0,1,1,1.66A4.06,4.06,0,0,1,209.74,166.19Z" transform="translate(-6.17 -6.21)" fill="url(#linear-gradient-13)"></path><path d="M187.44,163.89c-.55,1.92.05,4.41,1.81,5.19-.46.49-1.14.39-2.13-.77a5.3,5.3,0,0,1-1-2.53,10.78,10.78,0,0,1-.07-4.66,4.8,4.8,0,0,1,2.93-3.44c.48-.16,1.15-.13,1.32.35a1.13,1.13,0,0,1,0,.41v.08C189.36,160.31,188,161.92,187.44,163.89Z" transform="translate(-6.17 -6.21)" fill="url(#linear-gradient-14)"></path><path d="M188.45,158.75a.51.51,0,0,1,.25.06.41.41,0,0,1,.1.36,3.35,3.35,0,0,1-1,1.9c-.49.53-1.06,1-1.57,1.49s-.92,1.1-1.44,1.6a3.22,3.22,0,0,1-1.88,1,.5.5,0,0,1-.32,0,.54.54,0,0,1-.22-.36c-.37-1.39-.59-3.59.79-4.42A9.59,9.59,0,0,1,188.45,158.75Z" transform="translate(-6.17 -6.21)" fill="#fc682d"></path><path d="M205.36,175l16.23-.47h2v2.82L202,181.52S200.57,176,205.36,175Z" transform="translate(-6.17 -6.21)" fill="#fff"></path><path d="M202.23,177.38a2.82,2.82,0,0,0,2.19,1.47c1.55.14,19.14-3,19.14-3v1.5L202,181.52A11.88,11.88,0,0,1,202.23,177.38Z" transform="translate(-6.17 -6.21)" fill="url(#linear-gradient-15)"></path><path d="M230.11,177.7c1.92,2,3.77,4,5.52,6.14.25.31.52.75.3,1.09s-.89.21-1.32,0l-1.85-1.06a14.14,14.14,0,0,1,1.36,6.49,2,2,0,0,1-1.4-.86,16.72,16.72,0,0,0,.6,6.54,71,71,0,0,1,1.52,8c.08.67-.1,1.62-.78,1.59-.51,0-.76-.64-.86-1.14-1.06-5.23-.47-11-3.2-15.56a19.88,19.88,0,0,0-2.43,13c.3,1.87.87,3.69,1.07,5.57.44,4-.75,7.93-1.93,11.75-1.84-3.5-.85-7.72-.61-11.67.3-4.84-.6-9.85.86-14.48.52-1.66,1.34-3.31,1.13-5a14.49,14.49,0,0,0-.51-2c-.62-2.35-.46-5-1.91-6.95-.78-1-2.77-3.33-.47-4.05C226.88,174.53,229.09,176.67,230.11,177.7Z" transform="translate(-6.17 -6.21)" fill="#ffc823" opacity="0.18" style="isolation: isolate;"></path><polygon points="31.66 230.5 24.52 189.23 70.39 191.72 78.99 236.91 31.66 230.5" fill="#ffc823"></polygon><polygon points="78.99 236.91 108.94 228.43 76 221.21 78.99 236.91" fill="#ffc823"></polygon><polygon points="78.99 236.91 108.94 228.43 76 221.21 78.99 236.91" fill="url(#linear-gradient-16)"></polygon><polygon points="77.32 228.13 88.34 230.68 78.66 235.16 77.32 228.13" fill="url(#linear-gradient-17)"></polygon><polygon points="77.11 227.07 81.91 228.13 87.12 225.1 76.25 222.54 77.11 227.07" fill="url(#linear-gradient-18)"></polygon></svg>