<?xml version="1.0" standalone="no"?>
<!DOCTYPE svg PUBLIC "-//W3C//DTD SVG 20010904//EN"
 "http://www.w3.org/TR/2001/REC-SVG-20010904/DTD/svg10.dtd">
<svg version="1.0" xmlns="http://www.w3.org/2000/svg"
 width="1080.000000pt" height="1080.000000pt" viewBox="0 0 1080.000000 1080.000000"
 preserveAspectRatio="xMidYMid meet">
<metadata>
Created by potrace 1.14, written by Peter Selinger 2001-2017
</metadata>
<g transform="translate(0.000000,1080.000000) scale(0.100000,-0.100000)"
fill="#000000" stroke="none">
<path d="M3950 8940 c-93 -9 -187 -20 -220 -25 -14 -2 -54 -9 -90 -14 -347
-55 -714 -185 -995 -354 -248 -149 -445 -324 -611 -543 -46 -62 -84 -115 -84
-120 0 -4 -7 -15 -15 -24 -30 -33 -134 -250 -173 -360 -45 -129 -88 -311 -97
-410 -4 -36 -8 -71 -11 -79 -5 -17 -5 -325 1 -366 2 -16 7 -55 10 -84 8 -80
37 -207 67 -296 54 -158 122 -305 189 -401 16 -23 29 -47 29 -52 0 -6 3 -12 8
-14 4 -1 33 -37 65 -80 134 -177 360 -380 592 -530 158 -102 402 -231 575
-303 36 -15 79 -33 95 -40 37 -16 177 -69 360 -136 681 -250 942 -470 929
-784 -4 -106 -23 -172 -68 -248 -92 -152 -284 -261 -532 -302 -104 -16 -143
-19 -324 -19 -215 -1 -292 5 -485 35 -65 10 -69 10 -190 35 -266 54 -673 195
-889 307 -27 14 -33 14 -80 -7 -52 -24 -128 -59 -134 -62 -3 -2 -29 -97 -37
-134 -2 -8 -49 -199 -105 -425 -137 -554 -191 -778 -188 -780 2 -2 39 -23 84
-47 257 -142 707 -283 1104 -348 36 -5 76 -12 90 -14 47 -9 275 -36 340 -41
182 -14 241 -16 425 -16 110 0 229 3 265 5 36 3 95 8 132 11 82 5 135 12 258
30 52 8 113 17 135 20 105 16 421 99 505 132 8 4 17 7 20 8 6 2 25 9 110 42
95 36 283 130 375 186 432 266 729 631 880 1082 24 72 46 143 49 158 2 14 12
62 20 104 9 43 19 96 22 118 11 67 13 476 3 545 -13 96 -19 131 -24 154 -3 12
-7 32 -9 46 -20 113 -87 301 -154 435 -107 216 -305 454 -524 629 -70 57 -311
226 -322 226 -2 0 -42 22 -90 50 -155 89 -354 181 -586 272 -457 177 -554 217
-716 294 -88 42 -263 140 -274 154 -3 3 -16 14 -30 23 -78 54 -171 172 -186
239 -23 95 -23 166 -3 242 18 66 45 110 106 173 94 96 210 153 398 193 95 21
138 24 315 24 181 1 300 -5 380 -18 14 -2 47 -7 73 -11 27 -4 59 -8 70 -11 12
-2 38 -7 57 -10 149 -23 416 -105 606 -185 l141 -60 92 42 c87 40 91 43 102
83 13 53 67 245 114 411 20 72 38 137 40 146 3 15 83 305 157 568 24 87 36
147 31 152 -15 15 -206 96 -343 145 -189 69 -458 142 -620 169 -19 3 -42 8
-50 10 -15 4 -40 8 -135 20 -27 4 -60 8 -73 10 -13 2 -51 6 -85 10 -34 3 -84
8 -112 11 -76 9 -669 12 -755 4z"/>
<path d="M8128 3925 c-1 -1 -25 -6 -53 -9 -54 -8 -158 -32 -190 -45 -309 -125
-497 -320 -601 -623 -12 -38 -21 -68 -18 -68 3 0 0 -8 -5 -18 -5 -10 -13 -45
-16 -77 -4 -33 -9 -63 -12 -68 -6 -10 -6 -265 0 -275 3 -4 8 -31 12 -61 16
-124 95 -317 177 -430 148 -204 384 -350 623 -386 17 -3 41 -7 55 -10 32 -7
237 -7 270 0 13 2 40 7 60 10 104 16 193 46 304 104 235 122 412 352 480 624
26 104 31 151 31 297 -1 155 -7 210 -36 310 -7 25 -13 47 -14 50 -23 105 -121
272 -222 381 -141 151 -354 258 -568 287 -66 9 -269 14 -277 7z"/>
</g>
</svg>
